<svg width="135" height="186" viewBox="0 0 135 186" fill="none" xmlns="http://www.w3.org/2000/svg">
<path fill-rule="evenodd" clip-rule="evenodd" d="M33.0139 0.456787H58.366C77.1435 0.456787 107.017 10.6919 117.09 43.7252C121.696 58.8377 119.811 71.8718 117.901 85.1183C117.732 86.2268 117.58 87.3446 117.42 88.4623C115.586 101.524 113.786 116.895 116.363 139.019H125.972C128.213 139.019 130.362 139.992 131.947 141.725C133.532 143.457 134.422 145.807 134.422 148.257V175.969C134.422 178.419 133.532 180.768 131.947 182.501C130.362 184.233 128.213 185.206 125.972 185.206H24.5632C22.3219 185.206 20.1725 184.233 18.5876 182.501C17.0028 180.768 16.1125 178.419 16.1125 175.969V148.257C16.1125 145.807 17.0028 143.457 18.5876 141.725C20.1725 139.992 22.3219 139.019 24.5632 139.019H33.9097C35.8702 128.451 41.5153 113.912 55.5773 98.7805C57.1153 97.1178 58.028 95.2056 58.4083 93.312C49.4746 99.4115 40.1391 104.778 30.4787 109.367C28.1674 110.457 25.6095 110.761 23.1378 110.241C20.666 109.72 18.3948 108.398 16.6195 106.448L4.13784 92.8039C2.06436 90.5394 0.772883 87.5594 0.483217 84.3711C0.19355 81.1829 0.9236 77.9834 2.5491 75.3173L31.7125 27.5041L25.459 13.8327C24.8134 12.4243 24.5079 10.8589 24.5718 9.28522C24.6356 7.71152 25.0665 6.18179 25.8236 4.84143C26.5806 3.50106 27.6387 2.39458 28.8972 1.62715C30.1557 0.859725 31.5728 0.45684 33.0139 0.456787ZM49.9153 65.1192C52.1566 65.1192 54.306 64.1459 55.8909 62.4136C57.4757 60.6812 58.366 58.3316 58.366 55.8817C58.366 53.4317 57.4757 51.0822 55.8909 49.3498C54.306 47.6174 52.1566 46.6442 49.9153 46.6442C47.674 46.6442 45.5246 47.6174 43.9398 49.3498C42.3549 51.0822 41.4646 53.4317 41.4646 55.8817C41.4646 58.3316 42.3549 60.6812 43.9398 62.4136C45.5246 64.1459 47.674 65.1192 49.9153 65.1192Z" fill="#034C8C"/>
</svg>
