<svg width="155" height="169" viewBox="0 0 155 169" fill="none" xmlns="http://www.w3.org/2000/svg">
<path d="M27.3658 45.1032V66.0415C27.3658 68.124 28.1226 70.1211 29.4697 71.5936C30.8168 73.0661 32.6439 73.8934 34.5489 73.8934C36.454 73.8934 38.2811 73.0661 39.6282 71.5936C40.9752 70.1211 41.732 68.124 41.732 66.0415V45.1032H60.887C62.792 45.1032 64.6191 44.276 65.9662 42.8035C67.3133 41.331 68.0701 39.3338 68.0701 37.2514C68.0701 35.1689 67.3133 33.1718 65.9662 31.6993C64.6191 30.2268 62.792 29.3995 60.887 29.3995H41.732V8.46123C41.732 6.37879 40.9752 4.38164 39.6282 2.90913C38.2811 1.43662 36.454 0.609375 34.5489 0.609375C32.6439 0.609375 30.8168 1.43662 29.4697 2.90913C28.1226 4.38164 27.3658 6.37879 27.3658 8.46123V29.3995H8.21091C6.30583 29.3995 4.47878 30.2268 3.13169 31.6993C1.7846 33.1718 1.02781 35.1689 1.02781 37.2514C1.02781 39.3338 1.7846 41.331 3.13169 42.8035C4.47878 44.276 6.30583 45.1032 8.21091 45.1032H27.3658ZM87.225 37.2514C87.225 35.1689 87.9818 33.1718 89.3289 31.6993C90.676 30.2268 92.503 29.3995 94.4081 29.3995H147.084C148.989 29.3995 150.816 30.2268 152.163 31.6993C153.51 33.1718 154.267 35.1689 154.267 37.2514C154.267 39.3338 153.51 41.331 152.163 42.8035C150.816 44.276 148.989 45.1032 147.084 45.1032H94.4081C92.503 45.1032 90.676 44.276 89.3289 42.8035C87.9818 41.331 87.225 39.3338 87.225 37.2514ZM3.13485 108.232L24.3968 131.474L3.13485 154.715C2.42912 155.434 1.86307 156.301 1.47047 157.264C1.07787 158.227 0.866768 159.267 0.849751 160.321C0.832734 161.375 1.01015 162.423 1.37142 163.4C1.73269 164.378 2.27042 165.266 2.95251 166.012C3.63461 166.757 4.4471 167.345 5.34152 167.74C6.23595 168.135 7.19397 168.329 8.15845 168.31C9.12293 168.292 10.0741 168.061 10.9552 167.632C11.8363 167.203 12.6294 166.584 13.287 165.812L34.5489 142.571L55.8109 165.812C57.1726 167.199 58.9736 167.954 60.8345 167.919C62.6954 167.883 64.4709 167.059 65.787 165.62C67.1031 164.181 67.8569 162.241 67.8898 160.206C67.9226 158.172 67.2318 156.204 65.963 154.715L44.701 131.474L65.963 108.232C66.6687 107.513 67.2348 106.646 67.6274 105.683C68.02 104.72 68.2311 103.68 68.2481 102.626C68.2651 101.572 68.0877 100.525 67.7264 99.547C67.3652 98.5693 66.8274 97.6812 66.1454 96.9356C65.4633 96.19 64.6508 95.6022 63.7563 95.2073C62.8619 94.8124 61.9039 94.6184 60.9394 94.637C59.9749 94.6556 59.0238 94.8864 58.1427 95.3156C57.2615 95.7447 56.4685 96.3635 55.8109 97.1349L34.5489 120.376L13.287 97.1349C12.6294 96.3635 11.8363 95.7447 10.9552 95.3156C10.0741 94.8864 9.12293 94.6556 8.15845 94.637C7.19397 94.6184 6.23595 94.8124 5.34152 95.2073C4.4471 95.6022 3.63461 96.19 2.95251 96.9356C2.27042 97.6812 1.73269 98.5693 1.37142 99.547C1.01015 100.525 0.832734 101.572 0.849751 102.626C0.866768 103.68 1.07787 104.72 1.47047 105.683C1.86307 106.646 2.42912 107.513 3.13485 108.232ZM94.4081 123.622C92.503 123.622 90.676 124.449 89.3289 125.922C87.9818 127.394 87.225 129.391 87.225 131.474C87.225 133.556 87.9818 135.553 89.3289 137.026C90.676 138.498 92.503 139.326 94.4081 139.326H147.084C148.989 139.326 150.816 138.498 152.163 137.026C153.51 135.553 154.267 133.556 154.267 131.474C154.267 129.391 153.51 127.394 152.163 125.922C150.816 124.449 148.989 123.622 147.084 123.622H94.4081ZM130.324 105.301C130.324 108.077 129.315 110.74 127.518 112.704C125.722 114.667 123.286 115.77 120.746 115.77C118.206 115.77 115.77 114.667 113.974 112.704C112.178 110.74 111.169 108.077 111.169 105.301C111.169 102.524 112.178 99.8614 113.974 97.898C115.77 95.9347 118.206 94.8317 120.746 94.8317C123.286 94.8317 125.722 95.9347 127.518 97.898C129.315 99.8614 130.324 102.524 130.324 105.301ZM120.746 168.116C123.286 168.116 125.722 167.013 127.518 165.049C129.315 163.086 130.324 160.423 130.324 157.647C130.324 154.87 129.315 152.207 127.518 150.244C125.722 148.28 123.286 147.177 120.746 147.177C118.206 147.177 115.77 148.28 113.974 150.244C112.178 152.207 111.169 154.87 111.169 157.647C111.169 160.423 112.178 163.086 113.974 165.049C115.77 167.013 118.206 168.116 120.746 168.116Z" fill="#4ED9D9"/>
</svg>
