<svg width="189" height="151" viewBox="0 0 189 151" fill="none" xmlns="http://www.w3.org/2000/svg">
<path d="M183.606 71.0526C175.298 29.9929 162.794 8.07782 144.246 2.09164C140.347 0.841517 136.302 0.216969 132.239 0.237553C126.869 0.237553 122.192 1.66773 117.244 3.18354C111.282 5.01193 104.509 7.08869 94.6337 7.08869C84.7583 7.08869 77.9814 5.01622 72.0076 3.18782C67.0562 1.66773 62.3829 0.237553 57.028 0.237553C52.8265 0.221628 48.6433 0.844187 44.5986 2.08736C26.1483 8.04784 13.6523 29.9543 5.22235 71.0269C-3.84217 115.225 0.619579 143.131 17.7341 149.605C20.08 150.509 22.5484 150.975 25.0358 150.984C36.7602 150.984 46.1616 140.309 52.5859 131.569C59.8445 121.678 68.341 116.66 94.6337 116.66C118.118 116.66 127.836 120.141 136.231 131.569C141.508 138.755 146.494 143.782 151.469 146.946C158.085 151.151 164.698 152.084 171.118 149.674C181.232 145.901 187.03 135.929 188.354 120.025C189.361 107.83 187.809 91.8115 183.606 71.0526ZM75.8308 68.7489H63.2956V82.4511C63.2956 84.2682 62.6353 86.0108 61.4599 87.2956C60.2845 88.5805 58.6903 89.3023 57.028 89.3023C55.3658 89.3023 53.7716 88.5805 52.5962 87.2956C51.4208 86.0108 50.7604 84.2682 50.7604 82.4511V68.7489H38.2252C36.5629 68.7489 34.9688 68.0271 33.7933 66.7422C32.6179 65.4574 31.9576 63.7148 31.9576 61.8977C31.9576 60.0807 32.6179 58.3381 33.7933 57.0533C34.9688 55.7684 36.5629 55.0466 38.2252 55.0466H50.7604V41.3443C50.7604 39.5273 51.4208 37.7847 52.5962 36.4999C53.7716 35.215 55.3658 34.4932 57.028 34.4932C58.6903 34.4932 60.2845 35.215 61.4599 36.4999C62.6353 37.7847 63.2956 39.5273 63.2956 41.3443V55.0466H75.8308C77.4931 55.0466 79.0873 55.7684 80.2627 57.0533C81.4381 58.3381 82.0984 60.0807 82.0984 61.8977C82.0984 63.7148 81.4381 65.4574 80.2627 66.7422C79.0873 68.0271 77.4931 68.7489 75.8308 68.7489ZM108.736 70.4617C107.186 70.4617 105.672 69.9594 104.383 69.0184C103.095 68.0774 102.091 66.7399 101.498 65.175C100.905 63.6102 100.75 61.8882 101.052 60.227C101.354 58.5658 102.1 57.0398 103.196 55.8421C104.292 54.6445 105.688 53.8288 107.207 53.4984C108.727 53.1679 110.302 53.3375 111.734 53.9857C113.165 54.6339 114.389 55.7316 115.25 57.1399C116.111 58.5482 116.57 60.204 116.57 61.8977C116.57 64.169 115.745 66.3473 114.276 67.9533C112.806 69.5594 110.814 70.4617 108.736 70.4617ZM125.972 89.3023C124.421 89.3023 122.906 88.7995 121.617 87.8575C120.328 86.9155 119.324 85.5768 118.732 84.0107C118.139 82.4446 117.985 80.7215 118.289 79.0597C118.593 77.3979 119.341 75.872 120.439 74.6752C121.536 73.4784 122.934 72.6644 124.455 72.3364C125.976 72.0084 127.552 72.181 128.983 72.8325C130.415 73.484 131.637 74.585 132.495 75.9961C133.354 77.4072 133.81 79.0651 133.806 80.7598C133.801 83.0273 132.973 85.2001 131.505 86.8015C130.036 88.4029 128.046 89.3023 125.972 89.3023ZM125.972 51.621C124.422 51.621 122.907 51.1188 121.619 50.1778C120.331 49.2368 119.327 47.8993 118.734 46.3344C118.141 44.7696 117.985 43.0476 118.288 41.3864C118.59 39.7252 119.336 38.1992 120.432 37.0015C121.528 35.8038 122.924 34.9882 124.443 34.6578C125.963 34.3273 127.538 34.4969 128.97 35.1451C130.401 35.7933 131.625 36.8909 132.486 38.2993C133.347 39.7076 133.806 41.3633 133.806 43.0571C133.806 45.3284 132.981 47.5067 131.512 49.1127C130.042 50.7188 128.05 51.621 125.972 51.621ZM143.208 70.4617C141.658 70.4617 140.143 69.9594 138.855 69.0184C137.567 68.0774 136.562 66.7399 135.969 65.175C135.376 63.6102 135.221 61.8882 135.524 60.227C135.826 58.5658 136.572 57.0398 137.668 55.8421C138.763 54.6445 140.159 53.8288 141.679 53.4984C143.199 53.1679 144.774 53.3375 146.206 53.9857C147.637 54.6339 148.861 55.7316 149.722 57.1399C150.583 58.5482 151.042 60.204 151.042 61.8977C151.042 64.169 150.217 66.3473 148.747 67.9533C147.278 69.5594 145.285 70.4617 143.208 70.4617Z" fill="#F20574"/>
</svg>
